<?xml version="1.0" encoding="UTF-8" standalone="no"?>
<svg
   xmlns:dc="http://purl.org/dc/elements/1.1/"
   xmlns:cc="http://creativecommons.org/ns#"
   xmlns:rdf="http://www.w3.org/1999/02/22-rdf-syntax-ns#"
   xmlns:svg="http://www.w3.org/2000/svg"
   xmlns="http://www.w3.org/2000/svg"
   viewBox="0 0 1133.8573 1133.8573"
   height="1133.8573"
   width="1133.8573"
   xml:space="preserve"
   id="svg2"
   version="1.1"><metadata
     id="metadata8"><rdf:RDF><cc:Work
         rdf:about=""><dc:format>image/svg+xml</dc:format><dc:type
           rdf:resource="http://purl.org/dc/dcmitype/StillImage" /></cc:Work></rdf:RDF></metadata><defs
     id="defs6"><clipPath
       id="clipPath20"
       clipPathUnits="userSpaceOnUse"><path
         id="path18"
         d="M 0,850.393 H 850.393 V 0 H 0 Z" /></clipPath></defs><g
     transform="matrix(1.3333333,0,0,-1.3333333,0,1133.8573)"
     id="g10"><path
       id="path12"
       style="fill:#ff7855;fill-opacity:0;fill-rule:nonzero;stroke:none"
       d="M 0,0 H 850.394 V 850.394 H 0 Z" /><g
       id="g14"><g
         clip-path="url(#clipPath20)"
         id="g16"><g
           transform="translate(538.8896,217.7841)"
           id="g22"><path
             id="path24"
             style="fill:#7f5a51;fill-opacity:1;fill-rule:nonzero;stroke:none"
             d="m 0,0 c -47.256,0 -85.631,38.438 -85.631,85.693 0,7.95 6.395,14.344 14.344,14.344 7.947,0 14.344,-6.394 14.344,-14.344 0,-31.42 25.521,-56.941 56.943,-56.941 31.42,0 56.941,25.521 56.941,56.941 0,7.95 6.397,14.344 14.344,14.344 7.949,0 14.344,-6.394 14.344,-14.344 C 85.629,38.438 47.254,0 0,0" /></g><g
           transform="translate(493.4346,278.3906)"
           id="g26"><path
             id="path28"
             style="fill:#ffc388;fill-opacity:1;fill-rule:nonzero;stroke:none"
             d="m 0,0 c 0,-47.999 -39.245,-87.244 -87.245,-87.244 h -26.825 c -48,0 -87.246,39.245 -87.246,87.244 v 77.869 c 0,48.001 39.246,87.245 87.246,87.245 h 26.825 C -39.245,165.114 0,125.87 0,77.869 Z" /></g><g
           transform="translate(378.5576,163.9472)"
           id="g30"><path
             id="path32"
             style="fill:#b3784d;fill-opacity:1;fill-rule:nonzero;stroke:none"
             d="m 0,0 v 138.228 c 0,12.915 -10.434,23.347 -23.35,23.347 -12.916,0 -23.41,-10.432 -23.41,-23.347 L -46.76,0 c 7.39,2.36 15.215,3.603 23.41,3.603 C -15.215,3.603 -7.391,2.36 0,0" /></g><g
           transform="translate(355.208,127.5585)"
           id="g34"><path
             id="path36"
             style="fill:#7f5a51;fill-opacity:1;fill-rule:nonzero;stroke:none"
             d="M 0,0 C 12.916,0 23.35,10.434 23.35,23.348 V 36.389 C 15.959,38.749 8.135,39.991 0,39.991 c -8.195,0 -16.02,-1.242 -23.41,-3.602 V 23.348 C -23.41,10.434 -12.916,0 0,0" /></g><g
           transform="translate(451.085,163.9472)"
           id="g38"><path
             id="path40"
             style="fill:#b3784d;fill-opacity:1;fill-rule:nonzero;stroke:none"
             d="m 0,0 v 138.228 c 0,12.915 -10.494,23.347 -23.41,23.347 -12.916,0 -23.348,-10.432 -23.348,-23.347 L -46.758,0 c 7.389,2.36 15.213,3.603 23.348,3.603 C -15.213,3.603 -7.391,2.36 0,0" /></g><g
           transform="translate(427.6748,127.5585)"
           id="g42"><path
             id="path44"
             style="fill:#7f5a51;fill-opacity:1;fill-rule:nonzero;stroke:none"
             d="M 0,0 C 12.916,0 23.41,10.434 23.41,23.348 V 36.389 C 16.02,38.749 8.197,39.991 0,39.991 c -8.135,0 -15.959,-1.242 -23.348,-3.602 V 23.348 C -23.348,10.434 -12.916,0 0,0" /></g><g
           transform="translate(446.3662,464.4306)"
           id="g46"><path
             id="path48"
             style="fill:#7f5a51;fill-opacity:1;fill-rule:nonzero;stroke:none"
             d="m 0,0 c 0,-45.702 -25.895,-82.773 -57.875,-82.773 -31.916,0 -57.811,37.071 -57.811,82.773 0,45.704 25.895,82.713 57.811,82.713 C -25.895,82.713 0,45.704 0,0" /></g><g
           transform="translate(409.1689,418.5429)"
           id="g50"><path
             id="path52"
             style="fill:#e59f89;fill-opacity:1;fill-rule:nonzero;stroke:none"
             d="m 0,0 c 0,-11.426 -9.252,-20.679 -20.678,-20.679 -11.363,0 -20.615,9.253 -20.615,20.679 0,11.426 9.252,20.678 20.615,20.678 C -9.252,20.678 0,11.426 0,0" /></g><g
           transform="translate(532.7412,720.5156)"
           id="g54"><path
             id="path56"
             style="fill:#b3784d;fill-opacity:1;fill-rule:nonzero;stroke:none"
             d="m 0,0 c -29.434,17.947 -90.412,-73.956 -96.125,-81.842 -5.775,-7.887 -8.631,-21.548 -20.863,-17.201 -12.172,4.284 -27.262,2.856 -27.262,2.856 0,0 -15.027,1.428 -27.197,-2.856 -12.235,-4.347 -15.09,9.314 -20.865,17.201 -5.713,7.886 -66.692,99.789 -96.125,81.842 -29.432,-17.945 -24.403,-125.62 20.802,-179.458 0,0 12.17,-13.599 15.774,-36.574 3.601,-22.976 16.517,-51.664 44.521,-66.754 0,0 -1.428,-34.401 34.403,-28.688 0,0 28.005,-2.172 28.687,25.832 0.746,-28.004 28.752,-25.832 28.752,-25.832 35.828,-5.713 34.4,28.688 34.4,28.688 28.005,15.09 40.921,43.778 44.524,66.754 3.601,22.975 15.772,36.574 15.772,36.574 C 24.402,-125.62 29.436,-17.945 0,0" /></g><g
           transform="translate(251.8174,710.2079)"
           id="g58"><path
             id="path60"
             style="fill:#7f5a51;fill-opacity:1;fill-rule:nonzero;stroke:none"
             d="m 0,0 c 0,0 -18.008,-6.893 -12.418,-63.648 5.65,-56.819 17.945,-96.188 49.801,-81.037 31.793,15.215 60.73,30.8 34.713,69.86 C 46.139,-35.83 19.064,6.521 0,0" /></g><g
           transform="translate(525.2285,710.2079)"
           id="g62"><path
             id="path64"
             style="fill:#7f5a51;fill-opacity:1;fill-rule:nonzero;stroke:none"
             d="m 0,0 c 0,0 18.007,-6.893 12.418,-63.648 -5.649,-56.819 -17.946,-96.188 -49.8,-81.037 -31.793,15.215 -60.732,30.8 -34.711,69.86 C -46.138,-35.83 -19.065,6.521 0,0" /></g><g
           transform="translate(335.2744,432.9482)"
           id="g66"><path
             id="path68"
             style="fill:#7f5a51;fill-opacity:1;fill-rule:nonzero;stroke:none"
             d="M 0,0 C 0,0.87 -0.682,1.554 -1.551,1.554 -2.422,1.554 -3.104,0.87 -3.104,0 c 0,-0.869 0.682,-1.552 1.553,-1.552 C -0.682,-1.552 0,-0.869 0,0" /></g><g
           transform="translate(339.8701,421.6464)"
           id="g70"><path
             id="path72"
             style="fill:#7f5a51;fill-opacity:1;fill-rule:nonzero;stroke:none"
             d="m 0,0 c 0,0.809 -0.682,1.554 -1.49,1.554 -0.869,0 -1.551,-0.745 -1.551,-1.554 0,-0.868 0.682,-1.551 1.551,-1.551 C -0.682,-1.551 0,-0.868 0,0" /></g><g
           transform="translate(351.917,416.9892)"
           id="g74"><path
             id="path76"
             style="fill:#7f5a51;fill-opacity:1;fill-rule:nonzero;stroke:none"
             d="m 0,0 c 0,0.871 -0.684,1.554 -1.553,1.554 -0.806,0 -1.49,-0.683 -1.49,-1.554 0,-0.807 0.684,-1.488 1.49,-1.488 C -0.684,-1.488 0,-0.807 0,0" /></g><g
           transform="translate(347.6943,437.6679)"
           id="g78"><path
             id="path80"
             style="fill:#7f5a51;fill-opacity:1;fill-rule:nonzero;stroke:none"
             d="m 0,0 c 0,0.869 -0.682,1.553 -1.553,1.553 -0.806,0 -1.488,-0.684 -1.488,-1.553 0,-0.807 0.682,-1.49 1.488,-1.49 C -0.682,-1.49 0,-0.807 0,0" /></g><g
           transform="translate(354.4014,427.6708)"
           id="g82"><path
             id="path84"
             style="fill:#7f5a51;fill-opacity:1;fill-rule:nonzero;stroke:none"
             d="m 0,0 c 0,0.807 -0.684,1.49 -1.553,1.49 -0.869,0 -1.552,-0.683 -1.552,-1.49 0,-0.87 0.683,-1.553 1.552,-1.553 C -0.684,-1.553 0,-0.87 0,0" /></g><g
           transform="translate(366.0127,434.5019)"
           id="g86"><path
             id="path88"
             style="fill:#7f5a51;fill-opacity:1;fill-rule:nonzero;stroke:none"
             d="m 0,0 c 0,0.806 -0.684,1.552 -1.551,1.552 -0.871,0 -1.554,-0.746 -1.554,-1.552 0,-0.87 0.683,-1.554 1.554,-1.554 C -0.684,-1.554 0,-0.87 0,0" /></g><g
           transform="translate(366.0127,421.6464)"
           id="g90"><path
             id="path92"
             style="fill:#7f5a51;fill-opacity:1;fill-rule:nonzero;stroke:none"
             d="m 0,0 c 0,0.809 -0.684,1.554 -1.551,1.554 -0.871,0 -1.554,-0.745 -1.554,-1.554 0,-0.868 0.683,-1.551 1.554,-1.551 C -0.684,-1.551 0,-0.868 0,0" /></g><g
           transform="translate(441.7705,432.9482)"
           id="g94"><path
             id="path96"
             style="fill:#7f5a51;fill-opacity:1;fill-rule:nonzero;stroke:none"
             d="M 0,0 C 0,0.87 0.684,1.554 1.553,1.554 2.422,1.554 3.105,0.87 3.105,0 3.105,-0.869 2.422,-1.552 1.553,-1.552 0.684,-1.552 0,-0.869 0,0" /></g><g
           transform="translate(437.1143,421.6464)"
           id="g98"><path
             id="path100"
             style="fill:#7f5a51;fill-opacity:1;fill-rule:nonzero;stroke:none"
             d="M 0,0 C 0,0.809 0.682,1.554 1.551,1.554 2.422,1.554 3.104,0.809 3.104,0 3.104,-0.868 2.422,-1.551 1.551,-1.551 0.682,-1.551 0,-0.868 0,0" /></g><g
           transform="translate(425.1279,416.9892)"
           id="g102"><path
             id="path104"
             style="fill:#7f5a51;fill-opacity:1;fill-rule:nonzero;stroke:none"
             d="M 0,0 C 0,0.871 0.684,1.554 1.49,1.554 2.361,1.554 3.045,0.871 3.045,0 3.045,-0.807 2.361,-1.488 1.49,-1.488 0.684,-1.488 0,-0.807 0,0" /></g><g
           transform="translate(429.3506,437.6679)"
           id="g106"><path
             id="path108"
             style="fill:#7f5a51;fill-opacity:1;fill-rule:nonzero;stroke:none"
             d="M 0,0 C 0,0.869 0.686,1.553 1.553,1.553 2.359,1.553 3.045,0.869 3.045,0 3.045,-0.807 2.359,-1.49 1.553,-1.49 0.686,-1.49 0,-0.807 0,0" /></g><g
           transform="translate(422.6455,427.6708)"
           id="g110"><path
             id="path112"
             style="fill:#7f5a51;fill-opacity:1;fill-rule:nonzero;stroke:none"
             d="M 0,0 C 0,0.807 0.682,1.49 1.551,1.49 2.422,1.49 3.105,0.807 3.105,0 3.105,-0.87 2.422,-1.553 1.551,-1.553 0.682,-1.553 0,-0.87 0,0" /></g><g
           transform="translate(411.0322,434.5019)"
           id="g114"><path
             id="path116"
             style="fill:#7f5a51;fill-opacity:1;fill-rule:nonzero;stroke:none"
             d="M 0,0 C 0,0.806 0.684,1.552 1.553,1.552 2.422,1.552 3.105,0.806 3.105,0 3.105,-0.87 2.422,-1.554 1.553,-1.554 0.684,-1.554 0,-0.87 0,0" /></g><g
           transform="translate(411.0322,421.6464)"
           id="g118"><path
             id="path120"
             style="fill:#7f5a51;fill-opacity:1;fill-rule:nonzero;stroke:none"
             d="M 0,0 C 0,0.809 0.684,1.554 1.553,1.554 2.422,1.554 3.105,0.809 3.105,0 3.105,-0.868 2.422,-1.551 1.553,-1.551 0.684,-1.551 0,-0.868 0,0" /></g><g
           transform="translate(367.3174,532.6747)"
           id="g122"><path
             id="path124"
             style="fill:#211b19;fill-opacity:1;fill-rule:nonzero;stroke:none"
             d="m 0,0 c 0,-8.011 -6.457,-14.468 -14.469,-14.468 -8.01,0 -14.468,6.457 -14.468,14.468 0,8.011 6.458,14.469 14.468,14.469 C -6.457,14.469 0,8.011 0,0" /></g><g
           transform="translate(432.2705,532.6747)"
           id="g126"><path
             id="path128"
             style="fill:#211b19;fill-opacity:1;fill-rule:nonzero;stroke:none"
             d="M 0,0 C 0,-8.011 -6.52,-14.468 -14.531,-14.468 -22.479,-14.468 -29,-8.011 -29,0 c 0,8.011 6.521,14.469 14.469,14.469 C -6.52,14.469 0,8.011 0,0" /></g><g
           transform="translate(405.6299,440.8349)"
           id="g130"><path
             id="path132"
             style="fill:#211b19;fill-opacity:1;fill-rule:nonzero;stroke:none"
             d="m 0,0 c 0,-8.321 -7.699,-15.09 -17.139,-15.09 -9.437,0 -17.076,6.769 -17.076,15.09 0,8.383 7.639,15.151 17.076,15.151 C -7.699,15.151 0,8.383 0,0" /></g></g></g></g></svg>